<mxfile host="app.diagrams.net" agent="Mozilla/5.0 (Windows NT 10.0; Win64; x64) AppleWebKit/537.36 (KHTML, like Gecko) Chrome/140.0.0.0 Safari/537.36 Edg/140.0.0.0" version="28.2.1">
  <diagram name="Page-1" id="ixJSkVkBwFZioYLOljhV">
    <mxGraphModel dx="1234" dy="743" grid="1" gridSize="10" guides="1" tooltips="1" connect="1" arrows="1" fold="1" page="1" pageScale="1" pageWidth="827" pageHeight="1169" math="0" shadow="0">
      <root>
        <mxCell id="0" />
        <mxCell id="1" parent="0" />
        <mxCell id="qoUrT7d6lG7RUCfjTTM9-2" style="rounded=1;whiteSpace=wrap;html=1;fillColor=#FFFFFF;strokeColor=#000000;shadow=1;fontFamily=Times New Roman;fontSize=13;" parent="1" vertex="1">
          <mxGeometry x="100" y="140" width="300" height="600" as="geometry" />
        </mxCell>
        <mxCell id="qoUrT7d6lG7RUCfjTTM9-3" value="" style="rounded=0;whiteSpace=wrap;html=1;fillColor=#f5f5f5;strokeColor=#666666;fontFamily=Times New Roman;fontSize=13;fontColor=#333333;" parent="1" vertex="1">
          <mxGeometry x="120" y="180" width="260" height="520" as="geometry" />
        </mxCell>
        <mxCell id="qoUrT7d6lG7RUCfjTTM9-4" style="shape=ellipse;whiteSpace=wrap;html=1;fillColor=#000000;strokeColor=none;fontFamily=Times New Roman;fontSize=13;" parent="1" vertex="1">
          <mxGeometry x="230" y="150" width="20" height="10" as="geometry" />
        </mxCell>
        <mxCell id="qoUrT7d6lG7RUCfjTTM9-13" value="&lt;font&gt;&amp;nbsp;TIẾNG ANH&lt;/font&gt;" style="rounded=0;whiteSpace=wrap;html=1;fontFamily=Times New Roman;fontSize=13;" parent="1" vertex="1">
          <mxGeometry x="120" y="180" width="260" height="180" as="geometry" />
        </mxCell>
        <mxCell id="qoUrT7d6lG7RUCfjTTM9-16" value="TIẾNG VIỆT" style="rounded=0;whiteSpace=wrap;html=1;fontFamily=Times New Roman;fontSize=13;" parent="1" vertex="1">
          <mxGeometry x="120" y="360" width="260" height="180" as="geometry" />
        </mxCell>
        <mxCell id="qoUrT7d6lG7RUCfjTTM9-18" value="THOÁT ỨNG DỤNG" style="rounded=0;whiteSpace=wrap;html=1;fontFamily=Times New Roman;fontSize=13;" parent="1" vertex="1">
          <mxGeometry x="120" y="540" width="260" height="160" as="geometry" />
        </mxCell>
        <mxCell id="qoUrT7d6lG7RUCfjTTM9-20" value="Main Menu" style="text;html=1;align=center;verticalAlign=middle;whiteSpace=wrap;rounded=0;fontFamily=Times New Roman;fontSize=13;" parent="1" vertex="1">
          <mxGeometry x="160" y="100" width="130" height="30" as="geometry" />
        </mxCell>
        <mxCell id="qoUrT7d6lG7RUCfjTTM9-21" style="rounded=1;whiteSpace=wrap;html=1;fillColor=#FFFFFF;strokeColor=#000000;shadow=1;fontFamily=Times New Roman;fontSize=13;" parent="1" vertex="1">
          <mxGeometry x="580" y="140" width="300" height="600" as="geometry" />
        </mxCell>
        <mxCell id="qoUrT7d6lG7RUCfjTTM9-22" style="shape=ellipse;whiteSpace=wrap;html=1;fillColor=#000000;strokeColor=none;fontFamily=Times New Roman;fontSize=13;" parent="1" vertex="1">
          <mxGeometry x="720" y="150" width="20" height="10" as="geometry" />
        </mxCell>
        <mxCell id="qoUrT7d6lG7RUCfjTTM9-24" style="rounded=0;whiteSpace=wrap;html=1;fillColor=#F5F5F5;strokeColor=none;fontFamily=Times New Roman;fontSize=13;" parent="1" vertex="1">
          <mxGeometry x="600" y="180" width="260" height="520" as="geometry" />
        </mxCell>
        <mxCell id="qoUrT7d6lG7RUCfjTTM9-26" value="LUYỆN NGHE" style="rounded=0;whiteSpace=wrap;html=1;fontFamily=Times New Roman;fontSize=13;" parent="1" vertex="1">
          <mxGeometry x="600" y="310" width="260" height="130" as="geometry" />
        </mxCell>
        <mxCell id="qoUrT7d6lG7RUCfjTTM9-27" value="LUYỆN NÓI" style="rounded=0;whiteSpace=wrap;html=1;fontFamily=Times New Roman;fontSize=13;" parent="1" vertex="1">
          <mxGeometry x="600" y="440" width="260" height="130" as="geometry" />
        </mxCell>
        <mxCell id="qoUrT7d6lG7RUCfjTTM9-30" value="QUAY LẠI" style="rounded=0;whiteSpace=wrap;html=1;fontFamily=Times New Roman;fontSize=13;" parent="1" vertex="1">
          <mxGeometry x="600" y="570" width="260" height="130" as="geometry" />
        </mxCell>
        <mxCell id="qoUrT7d6lG7RUCfjTTM9-32" value="BẢNG CHỮ CÁI&amp;nbsp;" style="rounded=0;whiteSpace=wrap;html=1;fontFamily=Times New Roman;fontSize=13;" parent="1" vertex="1">
          <mxGeometry x="600" y="180" width="130" height="130" as="geometry" />
        </mxCell>
        <mxCell id="qoUrT7d6lG7RUCfjTTM9-34" value="TỪ VỰNG CƠ BẢN" style="rounded=0;whiteSpace=wrap;html=1;fontFamily=Times New Roman;fontSize=13;" parent="1" vertex="1">
          <mxGeometry x="730" y="180" width="130" height="130" as="geometry" />
        </mxCell>
        <mxCell id="qoUrT7d6lG7RUCfjTTM9-35" value="Sub-menu&amp;nbsp;" style="text;html=1;align=center;verticalAlign=middle;whiteSpace=wrap;rounded=0;fontFamily=Times New Roman;fontSize=13;" parent="1" vertex="1">
          <mxGeometry x="700" y="110" width="60" height="30" as="geometry" />
        </mxCell>
        <mxCell id="qoUrT7d6lG7RUCfjTTM9-36" style="rounded=1;whiteSpace=wrap;html=1;fillColor=#FFFFFF;strokeColor=#000000;shadow=1;fontFamily=Times New Roman;fontSize=13;" parent="1" vertex="1">
          <mxGeometry x="1010" y="140" width="300" height="600" as="geometry" />
        </mxCell>
        <mxCell id="qoUrT7d6lG7RUCfjTTM9-37" style="rounded=0;whiteSpace=wrap;html=1;fillColor=#F5F5F5;strokeColor=none;fontFamily=Times New Roman;fontSize=13;" parent="1" vertex="1">
          <mxGeometry x="1030" y="170" width="260" height="520" as="geometry" />
        </mxCell>
        <mxCell id="qoUrT7d6lG7RUCfjTTM9-38" value="BÀI 1" style="rounded=0;whiteSpace=wrap;html=1;fontFamily=Times New Roman;fontSize=13;" parent="1" vertex="1">
          <mxGeometry x="1030" y="170" width="130" height="150" as="geometry" />
        </mxCell>
        <mxCell id="qoUrT7d6lG7RUCfjTTM9-39" value="BÀI 2" style="rounded=0;whiteSpace=wrap;html=1;fontFamily=Times New Roman;fontSize=13;" parent="1" vertex="1">
          <mxGeometry x="1160" y="170" width="130" height="150" as="geometry" />
        </mxCell>
        <mxCell id="qoUrT7d6lG7RUCfjTTM9-40" value="BÀI 3" style="rounded=0;whiteSpace=wrap;html=1;fontFamily=Times New Roman;fontSize=13;" parent="1" vertex="1">
          <mxGeometry x="1030" y="320" width="130" height="150" as="geometry" />
        </mxCell>
        <mxCell id="qoUrT7d6lG7RUCfjTTM9-41" value="BÀI 4" style="rounded=0;whiteSpace=wrap;html=1;fontFamily=Times New Roman;fontSize=13;" parent="1" vertex="1">
          <mxGeometry x="1160" y="320" width="130" height="150" as="geometry" />
        </mxCell>
        <mxCell id="qoUrT7d6lG7RUCfjTTM9-42" value="BÀI 5" style="rounded=0;whiteSpace=wrap;html=1;fontFamily=Times New Roman;fontSize=13;" parent="1" vertex="1">
          <mxGeometry x="1030" y="470" width="130" height="150" as="geometry" />
        </mxCell>
        <mxCell id="qoUrT7d6lG7RUCfjTTM9-43" value="BÀI 6" style="rounded=0;whiteSpace=wrap;html=1;fontFamily=Times New Roman;fontSize=13;" parent="1" vertex="1">
          <mxGeometry x="1160" y="470" width="130" height="150" as="geometry" />
        </mxCell>
        <mxCell id="qoUrT7d6lG7RUCfjTTM9-45" value="TRANG TRƯỚC" style="rounded=0;whiteSpace=wrap;html=1;fontFamily=Times New Roman;fontSize=13;" parent="1" vertex="1">
          <mxGeometry x="1030" y="620" width="90" height="80" as="geometry" />
        </mxCell>
        <mxCell id="qoUrT7d6lG7RUCfjTTM9-46" value="TRANG SAU" style="rounded=0;whiteSpace=wrap;html=1;fontFamily=Times New Roman;fontSize=13;" parent="1" vertex="1">
          <mxGeometry x="1200" y="620" width="90" height="80" as="geometry" />
        </mxCell>
        <mxCell id="qoUrT7d6lG7RUCfjTTM9-47" value="Lesson page 1" style="text;html=1;align=center;verticalAlign=middle;whiteSpace=wrap;rounded=0;fontFamily=Times New Roman;fontSize=13;" parent="1" vertex="1">
          <mxGeometry x="1130" y="110" width="60" height="30" as="geometry" />
        </mxCell>
        <mxCell id="qoUrT7d6lG7RUCfjTTM9-48" style="rounded=1;whiteSpace=wrap;html=1;fillColor=#FFFFFF;strokeColor=#000000;shadow=1;fontFamily=Times New Roman;fontSize=13;" parent="1" vertex="1">
          <mxGeometry x="1380" y="140" width="300" height="600" as="geometry" />
        </mxCell>
        <mxCell id="qoUrT7d6lG7RUCfjTTM9-49" style="shape=ellipse;whiteSpace=wrap;html=1;fillColor=#000000;strokeColor=none;fontFamily=Times New Roman;fontSize=13;" parent="1" vertex="1">
          <mxGeometry x="1150" y="150" width="20" height="10" as="geometry" />
        </mxCell>
        <mxCell id="qoUrT7d6lG7RUCfjTTM9-52" style="shape=ellipse;whiteSpace=wrap;html=1;fillColor=#000000;strokeColor=none;fontFamily=Times New Roman;fontSize=13;" parent="1" vertex="1">
          <mxGeometry x="1520" y="150" width="20" height="10" as="geometry" />
        </mxCell>
        <mxCell id="qoUrT7d6lG7RUCfjTTM9-53" style="rounded=0;whiteSpace=wrap;html=1;fillColor=#F5F5F5;strokeColor=none;fontFamily=Times New Roman;fontSize=13;" parent="1" vertex="1">
          <mxGeometry x="1400" y="170" width="260" height="520" as="geometry" />
        </mxCell>
        <mxCell id="qoUrT7d6lG7RUCfjTTM9-54" value="BÀI 7" style="rounded=0;whiteSpace=wrap;html=1;fontFamily=Times New Roman;fontSize=13;" parent="1" vertex="1">
          <mxGeometry x="1400" y="170" width="130" height="150" as="geometry" />
        </mxCell>
        <mxCell id="qoUrT7d6lG7RUCfjTTM9-55" value="BÀI 8" style="rounded=0;whiteSpace=wrap;html=1;fontFamily=Times New Roman;fontSize=13;" parent="1" vertex="1">
          <mxGeometry x="1530" y="170" width="130" height="150" as="geometry" />
        </mxCell>
        <mxCell id="qoUrT7d6lG7RUCfjTTM9-56" value="BÀI 9" style="rounded=0;whiteSpace=wrap;html=1;fontFamily=Times New Roman;fontSize=13;" parent="1" vertex="1">
          <mxGeometry x="1400" y="320" width="130" height="150" as="geometry" />
        </mxCell>
        <mxCell id="qoUrT7d6lG7RUCfjTTM9-58" value="BÀI 10" style="rounded=0;whiteSpace=wrap;html=1;fontFamily=Times New Roman;fontSize=13;" parent="1" vertex="1">
          <mxGeometry x="1530" y="320" width="130" height="150" as="geometry" />
        </mxCell>
        <mxCell id="qoUrT7d6lG7RUCfjTTM9-59" value="BÀI 11" style="rounded=0;whiteSpace=wrap;html=1;fontFamily=Times New Roman;fontSize=13;" parent="1" vertex="1">
          <mxGeometry x="1400" y="470" width="130" height="150" as="geometry" />
        </mxCell>
        <mxCell id="qoUrT7d6lG7RUCfjTTM9-60" value="BÀI 12" style="rounded=0;whiteSpace=wrap;html=1;fontFamily=Times New Roman;fontSize=13;" parent="1" vertex="1">
          <mxGeometry x="1530" y="470" width="130" height="150" as="geometry" />
        </mxCell>
        <mxCell id="qoUrT7d6lG7RUCfjTTM9-86" style="rounded=1;whiteSpace=wrap;html=1;fillColor=#FFFFFF;strokeColor=#000000;shadow=1;fontFamily=Times New Roman;fontSize=13;" parent="1" vertex="1">
          <mxGeometry x="1150" y="1480" width="300" height="600" as="geometry" />
        </mxCell>
        <mxCell id="qoUrT7d6lG7RUCfjTTM9-87" style="shape=ellipse;whiteSpace=wrap;html=1;fillColor=#000000;strokeColor=none;fontFamily=Times New Roman;fontSize=13;" parent="1" vertex="1">
          <mxGeometry x="1290" y="1490" width="20" height="10" as="geometry" />
        </mxCell>
        <mxCell id="qoUrT7d6lG7RUCfjTTM9-88" style="rounded=0;whiteSpace=wrap;html=1;fillColor=#F5F5F5;strokeColor=none;fontFamily=Times New Roman;fontSize=13;" parent="1" vertex="1">
          <mxGeometry x="1170" y="1510" width="260" height="520" as="geometry" />
        </mxCell>
        <mxCell id="qoUrT7d6lG7RUCfjTTM9-89" value="Trang bài nghe(Chung)&lt;div&gt;&lt;div&gt;&lt;br&gt;&lt;/div&gt;&lt;/div&gt;" style="text;html=1;align=center;verticalAlign=middle;whiteSpace=wrap;rounded=0;fontFamily=Times New Roman;fontSize=13;" parent="1" vertex="1">
          <mxGeometry x="1270" y="1450" width="60" height="30" as="geometry" />
        </mxCell>
        <mxCell id="qoUrT7d6lG7RUCfjTTM9-90" value="CHỦ ĐỀ BÀI NGHE" style="rounded=0;whiteSpace=wrap;html=1;fontFamily=Times New Roman;fontSize=13;" parent="1" vertex="1">
          <mxGeometry x="1170" y="1510" width="260" height="90" as="geometry" />
        </mxCell>
        <mxCell id="qoUrT7d6lG7RUCfjTTM9-91" value="BÀI NGHE( NHẤP VÀO ĐỂ NGHE)" style="rounded=0;whiteSpace=wrap;html=1;fontFamily=Times New Roman;fontSize=13;" parent="1" vertex="1">
          <mxGeometry x="1170" y="1600" width="260" height="210" as="geometry" />
        </mxCell>
        <mxCell id="qoUrT7d6lG7RUCfjTTM9-92" value="BẢN DỊCH TIẾNG VIỆT" style="rounded=0;whiteSpace=wrap;html=1;fontFamily=Times New Roman;fontSize=13;" parent="1" vertex="1">
          <mxGeometry x="1170" y="1810" width="260" height="120" as="geometry" />
        </mxCell>
        <mxCell id="qoUrT7d6lG7RUCfjTTM9-94" style="rounded=1;whiteSpace=wrap;html=1;fillColor=#FFFFFF;strokeColor=#000000;shadow=1;fontFamily=Times New Roman;fontSize=13;" parent="1" vertex="1">
          <mxGeometry x="1150" y="2135" width="300" height="600" as="geometry" />
        </mxCell>
        <mxCell id="qoUrT7d6lG7RUCfjTTM9-95" style="shape=ellipse;whiteSpace=wrap;html=1;fillColor=#000000;strokeColor=none;fontFamily=Times New Roman;fontSize=13;" parent="1" vertex="1">
          <mxGeometry x="1290" y="2145" width="20" height="10" as="geometry" />
        </mxCell>
        <mxCell id="qoUrT7d6lG7RUCfjTTM9-96" style="rounded=0;whiteSpace=wrap;html=1;fillColor=#F5F5F5;strokeColor=none;fontFamily=Times New Roman;fontSize=13;" parent="1" vertex="1">
          <mxGeometry x="1170" y="2165" width="260" height="520" as="geometry" />
        </mxCell>
        <mxCell id="qoUrT7d6lG7RUCfjTTM9-97" value="" style="edgeStyle=orthogonalEdgeStyle;rounded=0;orthogonalLoop=1;jettySize=auto;html=1;fontFamily=Times New Roman;fontSize=13;" parent="1" source="qoUrT7d6lG7RUCfjTTM9-98" target="qoUrT7d6lG7RUCfjTTM9-103" edge="1">
          <mxGeometry relative="1" as="geometry" />
        </mxCell>
        <mxCell id="qoUrT7d6lG7RUCfjTTM9-98" value="CHỦ ĐỀ BÀI NÓI" style="rounded=0;whiteSpace=wrap;html=1;fontFamily=Times New Roman;fontSize=13;" parent="1" vertex="1">
          <mxGeometry x="1170" y="2165" width="260" height="90" as="geometry" />
        </mxCell>
        <mxCell id="qoUrT7d6lG7RUCfjTTM9-99" value="BÀI NÓI(NHẤP VÀO ĐỂ NGHE)" style="rounded=0;whiteSpace=wrap;html=1;fontFamily=Times New Roman;fontSize=13;" parent="1" vertex="1">
          <mxGeometry x="1170" y="2255" width="260" height="150" as="geometry" />
        </mxCell>
        <mxCell id="qoUrT7d6lG7RUCfjTTM9-100" value="BẢN DỊCH TIẾNG VIỆT" style="rounded=0;whiteSpace=wrap;html=1;fontFamily=Times New Roman;fontSize=13;" parent="1" vertex="1">
          <mxGeometry x="1170" y="2555" width="260" height="70" as="geometry" />
        </mxCell>
        <mxCell id="qoUrT7d6lG7RUCfjTTM9-101" value="NHẤP VÀO ĐỂ NÓI" style="rounded=0;whiteSpace=wrap;html=1;fontFamily=Times New Roman;fontSize=13;" parent="1" vertex="1">
          <mxGeometry x="1170" y="2405" width="130" height="150" as="geometry" />
        </mxCell>
        <mxCell id="qoUrT7d6lG7RUCfjTTM9-102" value="NHẤP VÀO ĐỂ NGHE&amp;nbsp; BÀI NÓI CỦA MÌNH" style="rounded=0;whiteSpace=wrap;html=1;fontFamily=Times New Roman;fontSize=13;" parent="1" vertex="1">
          <mxGeometry x="1300" y="2405" width="130" height="150" as="geometry" />
        </mxCell>
        <mxCell id="qoUrT7d6lG7RUCfjTTM9-103" value="Trang bài nói (Chung)&lt;div&gt;&lt;div&gt;&lt;br&gt;&lt;/div&gt;&lt;/div&gt;" style="text;html=1;align=center;verticalAlign=middle;whiteSpace=wrap;rounded=0;fontFamily=Times New Roman;fontSize=13;" parent="1" vertex="1">
          <mxGeometry x="1270" y="2095" width="80" height="30" as="geometry" />
        </mxCell>
        <mxCell id="qoUrT7d6lG7RUCfjTTM9-119" value="QUAY LẠI" style="rounded=0;whiteSpace=wrap;html=1;fontFamily=Times New Roman;fontSize=13;" parent="1" vertex="1">
          <mxGeometry x="1170" y="2625" width="260" height="70" as="geometry" />
        </mxCell>
        <mxCell id="qoUrT7d6lG7RUCfjTTM9-120" value="QUAY LẠI" style="rounded=0;whiteSpace=wrap;html=1;fontFamily=Times New Roman;fontSize=13;" parent="1" vertex="1">
          <mxGeometry x="1170" y="1930" width="260" height="100" as="geometry" />
        </mxCell>
        <mxCell id="PX54fiHaZJq2f_gUCy9G-1" style="edgeStyle=orthogonalEdgeStyle;rounded=0;orthogonalLoop=1;jettySize=auto;html=1;entryX=0.033;entryY=0.217;entryDx=0;entryDy=0;entryPerimeter=0;fontFamily=Times New Roman;fontSize=13;" edge="1" parent="1" source="qoUrT7d6lG7RUCfjTTM9-13" target="qoUrT7d6lG7RUCfjTTM9-21">
          <mxGeometry relative="1" as="geometry" />
        </mxCell>
        <mxCell id="PX54fiHaZJq2f_gUCy9G-2" value="Tiếng Anh qua sub-menu&lt;div&gt;&lt;br&gt;&lt;/div&gt;" style="text;html=1;align=center;verticalAlign=middle;whiteSpace=wrap;rounded=0;fontFamily=Times New Roman;fontSize=13;" vertex="1" parent="1">
          <mxGeometry x="450" y="240" width="60" height="30" as="geometry" />
        </mxCell>
        <mxCell id="PX54fiHaZJq2f_gUCy9G-3" style="edgeStyle=orthogonalEdgeStyle;rounded=0;orthogonalLoop=1;jettySize=auto;html=1;entryX=0;entryY=0.175;entryDx=0;entryDy=0;entryPerimeter=0;fontFamily=Times New Roman;fontSize=13;" edge="1" parent="1" source="qoUrT7d6lG7RUCfjTTM9-34" target="qoUrT7d6lG7RUCfjTTM9-36">
          <mxGeometry relative="1" as="geometry" />
        </mxCell>
        <mxCell id="PX54fiHaZJq2f_gUCy9G-4" value="Bảng chữ cái(Alphabet) qua lesson page(Bài)&lt;div&gt;&lt;br&gt;&lt;/div&gt;" style="text;html=1;align=center;verticalAlign=middle;whiteSpace=wrap;rounded=0;fontFamily=Times New Roman;fontSize=13;" vertex="1" parent="1">
          <mxGeometry x="900" y="210" width="60" height="30" as="geometry" />
        </mxCell>
        <mxCell id="PX54fiHaZJq2f_gUCy9G-8" value="QUAY LẠI" style="rounded=0;whiteSpace=wrap;html=1;fontFamily=Times New Roman;fontSize=13;" vertex="1" parent="1">
          <mxGeometry x="1120" y="620" width="80" height="80" as="geometry" />
        </mxCell>
        <mxCell id="PX54fiHaZJq2f_gUCy9G-9" value="TRANG TRƯỚC" style="rounded=0;whiteSpace=wrap;html=1;fontFamily=Times New Roman;fontSize=13;" vertex="1" parent="1">
          <mxGeometry x="1400" y="620" width="90" height="80" as="geometry" />
        </mxCell>
        <mxCell id="PX54fiHaZJq2f_gUCy9G-10" value="QUAY LẠI" style="rounded=0;whiteSpace=wrap;html=1;fontFamily=Times New Roman;fontSize=13;" vertex="1" parent="1">
          <mxGeometry x="1490" y="620" width="80" height="80" as="geometry" />
        </mxCell>
        <mxCell id="PX54fiHaZJq2f_gUCy9G-11" value="TRANG SAU" style="rounded=0;whiteSpace=wrap;html=1;fontFamily=Times New Roman;fontSize=13;" vertex="1" parent="1">
          <mxGeometry x="1570" y="620" width="90" height="80" as="geometry" />
        </mxCell>
        <mxCell id="PX54fiHaZJq2f_gUCy9G-12" value="Lesson page 2" style="text;html=1;align=center;verticalAlign=middle;whiteSpace=wrap;rounded=0;fontFamily=Times New Roman;fontSize=13;" vertex="1" parent="1">
          <mxGeometry x="1500" y="100" width="60" height="30" as="geometry" />
        </mxCell>
        <mxCell id="PX54fiHaZJq2f_gUCy9G-13" style="edgeStyle=orthogonalEdgeStyle;rounded=0;orthogonalLoop=1;jettySize=auto;html=1;exitX=1;exitY=0.5;exitDx=0;exitDy=0;entryX=0.007;entryY=0.175;entryDx=0;entryDy=0;entryPerimeter=0;fontFamily=Times New Roman;fontSize=13;" edge="1" parent="1" source="qoUrT7d6lG7RUCfjTTM9-39" target="qoUrT7d6lG7RUCfjTTM9-48">
          <mxGeometry relative="1" as="geometry" />
        </mxCell>
        <mxCell id="PX54fiHaZJq2f_gUCy9G-14" value="Page 2" style="text;html=1;align=center;verticalAlign=middle;whiteSpace=wrap;rounded=0;fontFamily=Times New Roman;fontSize=13;" vertex="1" parent="1">
          <mxGeometry x="1310" y="210" width="60" height="30" as="geometry" />
        </mxCell>
        <mxCell id="PX54fiHaZJq2f_gUCy9G-15" style="rounded=1;whiteSpace=wrap;html=1;fillColor=#FFFFFF;strokeColor=#000000;shadow=1;fontFamily=Times New Roman;fontSize=13;" vertex="1" parent="1">
          <mxGeometry x="90" y="790" width="300" height="600" as="geometry" />
        </mxCell>
        <mxCell id="PX54fiHaZJq2f_gUCy9G-16" style="shape=ellipse;whiteSpace=wrap;html=1;fillColor=#000000;strokeColor=none;fontFamily=Times New Roman;fontSize=13;" vertex="1" parent="1">
          <mxGeometry x="230" y="800" width="20" height="10" as="geometry" />
        </mxCell>
        <mxCell id="PX54fiHaZJq2f_gUCy9G-17" style="rounded=0;whiteSpace=wrap;html=1;fillColor=#F5F5F5;strokeColor=none;fontFamily=Times New Roman;fontSize=13;" vertex="1" parent="1">
          <mxGeometry x="110" y="830" width="260" height="520" as="geometry" />
        </mxCell>
        <mxCell id="PX54fiHaZJq2f_gUCy9G-18" value="LUYỆN NGHE" style="rounded=0;whiteSpace=wrap;html=1;fontFamily=Times New Roman;fontSize=13;" vertex="1" parent="1">
          <mxGeometry x="110" y="960" width="260" height="130" as="geometry" />
        </mxCell>
        <mxCell id="PX54fiHaZJq2f_gUCy9G-19" value="LUYỆN NÓI" style="rounded=0;whiteSpace=wrap;html=1;fontFamily=Times New Roman;fontSize=13;" vertex="1" parent="1">
          <mxGeometry x="110" y="1090" width="260" height="130" as="geometry" />
        </mxCell>
        <mxCell id="PX54fiHaZJq2f_gUCy9G-20" value="QUAY LẠI" style="rounded=0;whiteSpace=wrap;html=1;fontFamily=Times New Roman;fontSize=13;" vertex="1" parent="1">
          <mxGeometry x="110" y="1220" width="260" height="130" as="geometry" />
        </mxCell>
        <mxCell id="PX54fiHaZJq2f_gUCy9G-21" value="BẢNG CHỮ CÁI&amp;nbsp;" style="rounded=0;whiteSpace=wrap;html=1;fontFamily=Times New Roman;fontSize=13;" vertex="1" parent="1">
          <mxGeometry x="110" y="830" width="130" height="130" as="geometry" />
        </mxCell>
        <mxCell id="PX54fiHaZJq2f_gUCy9G-22" value="TỪ VỰNG CƠ BẢN" style="rounded=0;whiteSpace=wrap;html=1;fontFamily=Times New Roman;fontSize=13;" vertex="1" parent="1">
          <mxGeometry x="240" y="830" width="130" height="130" as="geometry" />
        </mxCell>
        <mxCell id="PX54fiHaZJq2f_gUCy9G-23" value="Sub-menu&amp;nbsp;" style="text;html=1;align=center;verticalAlign=middle;whiteSpace=wrap;rounded=0;fontFamily=Times New Roman;fontSize=13;" vertex="1" parent="1">
          <mxGeometry x="210" y="760" width="60" height="30" as="geometry" />
        </mxCell>
        <mxCell id="PX54fiHaZJq2f_gUCy9G-24" style="rounded=1;whiteSpace=wrap;html=1;fillColor=#FFFFFF;strokeColor=#000000;shadow=1;fontFamily=Times New Roman;fontSize=13;" vertex="1" parent="1">
          <mxGeometry x="580" y="790" width="300" height="600" as="geometry" />
        </mxCell>
        <mxCell id="PX54fiHaZJq2f_gUCy9G-25" style="rounded=0;whiteSpace=wrap;html=1;fillColor=#F5F5F5;strokeColor=none;fontFamily=Times New Roman;fontSize=13;" vertex="1" parent="1">
          <mxGeometry x="600" y="820" width="260" height="520" as="geometry" />
        </mxCell>
        <mxCell id="PX54fiHaZJq2f_gUCy9G-26" value="BÀI 1" style="rounded=0;whiteSpace=wrap;html=1;fontFamily=Times New Roman;fontSize=13;" vertex="1" parent="1">
          <mxGeometry x="600" y="820" width="130" height="150" as="geometry" />
        </mxCell>
        <mxCell id="PX54fiHaZJq2f_gUCy9G-27" value="BÀI 2" style="rounded=0;whiteSpace=wrap;html=1;fontFamily=Times New Roman;fontSize=13;" vertex="1" parent="1">
          <mxGeometry x="730" y="820" width="130" height="150" as="geometry" />
        </mxCell>
        <mxCell id="PX54fiHaZJq2f_gUCy9G-28" value="BÀI 3" style="rounded=0;whiteSpace=wrap;html=1;fontFamily=Times New Roman;fontSize=13;" vertex="1" parent="1">
          <mxGeometry x="600" y="970" width="130" height="150" as="geometry" />
        </mxCell>
        <mxCell id="PX54fiHaZJq2f_gUCy9G-78" style="edgeStyle=orthogonalEdgeStyle;rounded=0;orthogonalLoop=1;jettySize=auto;html=1;entryX=0;entryY=0.5;entryDx=0;entryDy=0;fontFamily=Times New Roman;fontSize=13;" edge="1" parent="1" source="PX54fiHaZJq2f_gUCy9G-29" target="PX54fiHaZJq2f_gUCy9G-68">
          <mxGeometry relative="1" as="geometry" />
        </mxCell>
        <mxCell id="PX54fiHaZJq2f_gUCy9G-29" value="BÀI 4" style="rounded=0;whiteSpace=wrap;html=1;fontFamily=Times New Roman;fontSize=13;" vertex="1" parent="1">
          <mxGeometry x="730" y="970" width="130" height="150" as="geometry" />
        </mxCell>
        <mxCell id="PX54fiHaZJq2f_gUCy9G-30" value="BÀI 5" style="rounded=0;whiteSpace=wrap;html=1;fontFamily=Times New Roman;fontSize=13;" vertex="1" parent="1">
          <mxGeometry x="600" y="1120" width="130" height="150" as="geometry" />
        </mxCell>
        <mxCell id="PX54fiHaZJq2f_gUCy9G-31" value="BÀI 6" style="rounded=0;whiteSpace=wrap;html=1;fontFamily=Times New Roman;fontSize=13;" vertex="1" parent="1">
          <mxGeometry x="730" y="1120" width="130" height="150" as="geometry" />
        </mxCell>
        <mxCell id="PX54fiHaZJq2f_gUCy9G-32" value="TRANG TRƯỚC" style="rounded=0;whiteSpace=wrap;html=1;fontFamily=Times New Roman;fontSize=13;" vertex="1" parent="1">
          <mxGeometry x="600" y="1270" width="90" height="80" as="geometry" />
        </mxCell>
        <mxCell id="PX54fiHaZJq2f_gUCy9G-33" value="TRANG SAU" style="rounded=0;whiteSpace=wrap;html=1;fontFamily=Times New Roman;fontSize=13;" vertex="1" parent="1">
          <mxGeometry x="770" y="1270" width="90" height="80" as="geometry" />
        </mxCell>
        <mxCell id="PX54fiHaZJq2f_gUCy9G-34" value="Lesson page 1" style="text;html=1;align=center;verticalAlign=middle;whiteSpace=wrap;rounded=0;fontFamily=Times New Roman;fontSize=13;" vertex="1" parent="1">
          <mxGeometry x="700" y="760" width="60" height="30" as="geometry" />
        </mxCell>
        <mxCell id="PX54fiHaZJq2f_gUCy9G-35" style="shape=ellipse;whiteSpace=wrap;html=1;fillColor=#000000;strokeColor=none;fontFamily=Times New Roman;fontSize=13;" vertex="1" parent="1">
          <mxGeometry x="720" y="800" width="20" height="10" as="geometry" />
        </mxCell>
        <mxCell id="PX54fiHaZJq2f_gUCy9G-36" value="QUAY LẠI" style="rounded=0;whiteSpace=wrap;html=1;fontFamily=Times New Roman;fontSize=13;" vertex="1" parent="1">
          <mxGeometry x="690" y="1270" width="80" height="80" as="geometry" />
        </mxCell>
        <mxCell id="PX54fiHaZJq2f_gUCy9G-37" style="edgeStyle=orthogonalEdgeStyle;rounded=0;orthogonalLoop=1;jettySize=auto;html=1;exitX=0.5;exitY=0;exitDx=0;exitDy=0;entryX=0;entryY=0.419;entryDx=0;entryDy=0;entryPerimeter=0;fontFamily=Times New Roman;fontSize=13;" edge="1" parent="1" source="PX54fiHaZJq2f_gUCy9G-21" target="PX54fiHaZJq2f_gUCy9G-24">
          <mxGeometry relative="1" as="geometry" />
        </mxCell>
        <mxCell id="PX54fiHaZJq2f_gUCy9G-38" value="Từ vựng cơ bản(Basic Vocabulary) qua bài(Lesson page)" style="text;html=1;align=center;verticalAlign=middle;whiteSpace=wrap;rounded=0;fontFamily=Times New Roman;fontSize=13;" vertex="1" parent="1">
          <mxGeometry x="450" y="1000" width="60" height="30" as="geometry" />
        </mxCell>
        <mxCell id="PX54fiHaZJq2f_gUCy9G-64" style="rounded=1;whiteSpace=wrap;html=1;fillColor=#FFFFFF;strokeColor=#000000;shadow=1;fontFamily=Times New Roman;fontSize=13;" vertex="1" parent="1">
          <mxGeometry x="1120" y="790" width="300" height="600" as="geometry" />
        </mxCell>
        <mxCell id="PX54fiHaZJq2f_gUCy9G-65" style="rounded=0;whiteSpace=wrap;html=1;fillColor=#F5F5F5;strokeColor=none;fontFamily=Times New Roman;fontSize=13;" vertex="1" parent="1">
          <mxGeometry x="1140" y="820" width="260" height="520" as="geometry" />
        </mxCell>
        <mxCell id="PX54fiHaZJq2f_gUCy9G-66" value="Unit 1" style="rounded=0;whiteSpace=wrap;html=1;fontFamily=Times New Roman;fontSize=13;" vertex="1" parent="1">
          <mxGeometry x="1140" y="820" width="130" height="150" as="geometry" />
        </mxCell>
        <mxCell id="PX54fiHaZJq2f_gUCy9G-67" value="Unit 2" style="rounded=0;whiteSpace=wrap;html=1;fontFamily=Times New Roman;fontSize=13;" vertex="1" parent="1">
          <mxGeometry x="1270" y="820" width="130" height="150" as="geometry" />
        </mxCell>
        <mxCell id="PX54fiHaZJq2f_gUCy9G-68" value="Unit&amp;nbsp;3" style="rounded=0;whiteSpace=wrap;html=1;fontFamily=Times New Roman;fontSize=13;" vertex="1" parent="1">
          <mxGeometry x="1140" y="970" width="130" height="150" as="geometry" />
        </mxCell>
        <mxCell id="PX54fiHaZJq2f_gUCy9G-69" value="Unit 4" style="rounded=0;whiteSpace=wrap;html=1;fontFamily=Times New Roman;fontSize=13;" vertex="1" parent="1">
          <mxGeometry x="1270" y="970" width="130" height="150" as="geometry" />
        </mxCell>
        <mxCell id="PX54fiHaZJq2f_gUCy9G-70" value="Unit&amp;nbsp;5" style="rounded=0;whiteSpace=wrap;html=1;fontFamily=Times New Roman;fontSize=13;" vertex="1" parent="1">
          <mxGeometry x="1140" y="1120" width="130" height="150" as="geometry" />
        </mxCell>
        <mxCell id="PX54fiHaZJq2f_gUCy9G-71" value="Unit&amp;nbsp;6" style="rounded=0;whiteSpace=wrap;html=1;fontFamily=Times New Roman;fontSize=13;" vertex="1" parent="1">
          <mxGeometry x="1270" y="1120" width="130" height="150" as="geometry" />
        </mxCell>
        <mxCell id="PX54fiHaZJq2f_gUCy9G-72" value="QUAY LẠI" style="ellipse;whiteSpace=wrap;html=1;fontFamily=Times New Roman;fontSize=13;" vertex="1" parent="1">
          <mxGeometry x="1240" y="1270" width="70" height="80" as="geometry" />
        </mxCell>
        <mxCell id="PX54fiHaZJq2f_gUCy9G-73" value="TRANG TRƯỚC" style="rounded=0;whiteSpace=wrap;html=1;fontFamily=Times New Roman;fontSize=13;" vertex="1" parent="1">
          <mxGeometry x="1140" y="1270" width="100" height="80" as="geometry" />
        </mxCell>
        <mxCell id="PX54fiHaZJq2f_gUCy9G-74" value="TRANG SAU" style="rounded=0;whiteSpace=wrap;html=1;fontFamily=Times New Roman;fontSize=13;" vertex="1" parent="1">
          <mxGeometry x="1310" y="1270" width="90" height="80" as="geometry" />
        </mxCell>
        <mxCell id="PX54fiHaZJq2f_gUCy9G-75" value="Unit Page 1&lt;br&gt;&lt;div&gt;&lt;br&gt;&lt;/div&gt;" style="text;html=1;align=center;verticalAlign=middle;whiteSpace=wrap;rounded=0;fontFamily=Times New Roman;fontSize=13;" vertex="1" parent="1">
          <mxGeometry x="1240" y="760" width="60" height="30" as="geometry" />
        </mxCell>
        <mxCell id="PX54fiHaZJq2f_gUCy9G-76" style="shape=ellipse;whiteSpace=wrap;html=1;fillColor=#000000;strokeColor=none;fontFamily=Times New Roman;fontSize=13;" vertex="1" parent="1">
          <mxGeometry x="1260" y="800" width="20" height="10" as="geometry" />
        </mxCell>
        <mxCell id="PX54fiHaZJq2f_gUCy9G-79" value="Bài(Lesson page) qua Unit&lt;div&gt;&lt;br&gt;&lt;/div&gt;" style="text;html=1;align=center;verticalAlign=middle;whiteSpace=wrap;rounded=0;fontFamily=Times New Roman;fontSize=13;" vertex="1" parent="1">
          <mxGeometry x="960" y="1010" width="60" height="30" as="geometry" />
        </mxCell>
        <mxCell id="PX54fiHaZJq2f_gUCy9G-80" style="rounded=1;whiteSpace=wrap;html=1;fillColor=#FFFFFF;strokeColor=#000000;shadow=1;fontFamily=Times New Roman;fontSize=13;" vertex="1" parent="1">
          <mxGeometry x="1780" y="790" width="300" height="600" as="geometry" />
        </mxCell>
        <mxCell id="PX54fiHaZJq2f_gUCy9G-81" style="shape=ellipse;whiteSpace=wrap;html=1;fillColor=#000000;strokeColor=none;fontFamily=Times New Roman;fontSize=13;" vertex="1" parent="1">
          <mxGeometry x="1920" y="800" width="20" height="10" as="geometry" />
        </mxCell>
        <mxCell id="PX54fiHaZJq2f_gUCy9G-82" style="rounded=0;whiteSpace=wrap;html=1;fillColor=#F5F5F5;strokeColor=none;fontFamily=Times New Roman;fontSize=13;" vertex="1" parent="1">
          <mxGeometry x="1800" y="820" width="260" height="520" as="geometry" />
        </mxCell>
        <mxCell id="PX54fiHaZJq2f_gUCy9G-83" value="Bài...: CHỦ ĐỀ TỪ VỰNG&lt;div&gt;Unit ...&lt;/div&gt;" style="rounded=0;whiteSpace=wrap;html=1;fontFamily=Times New Roman;fontSize=13;" vertex="1" parent="1">
          <mxGeometry x="1800" y="820" width="260" height="90" as="geometry" />
        </mxCell>
        <mxCell id="PX54fiHaZJq2f_gUCy9G-84" value="Unit exercise learning(Trang học unit)&lt;div&gt;&lt;br&gt;&lt;/div&gt;" style="text;html=1;align=center;verticalAlign=middle;whiteSpace=wrap;rounded=0;fontFamily=Times New Roman;fontSize=13;" vertex="1" parent="1">
          <mxGeometry x="1890" y="750" width="60" height="30" as="geometry" />
        </mxCell>
        <mxCell id="PX54fiHaZJq2f_gUCy9G-85" value="TỪ 1:Bản Tiếng Việt&lt;div&gt;&lt;br&gt;&lt;/div&gt;" style="rounded=0;whiteSpace=wrap;html=1;fontFamily=Times New Roman;fontSize=13;" vertex="1" parent="1">
          <mxGeometry x="1800" y="910" width="130" height="120" as="geometry" />
        </mxCell>
        <mxCell id="PX54fiHaZJq2f_gUCy9G-86" value="TỪ 2:Bản Tiếng Việt&lt;div&gt;&lt;br&gt;&lt;/div&gt;" style="rounded=0;whiteSpace=wrap;html=1;fontFamily=Times New Roman;fontSize=13;" vertex="1" parent="1">
          <mxGeometry x="1930" y="910" width="130" height="120" as="geometry" />
        </mxCell>
        <mxCell id="PX54fiHaZJq2f_gUCy9G-87" value="Từ 3: Bản Tiếng Việt&lt;div&gt;&lt;br&gt;&lt;/div&gt;" style="rounded=0;whiteSpace=wrap;html=1;fontFamily=Times New Roman;fontSize=13;" vertex="1" parent="1">
          <mxGeometry x="1800" y="1030" width="130" height="120" as="geometry" />
        </mxCell>
        <mxCell id="PX54fiHaZJq2f_gUCy9G-88" value="Từ 4: Bản Tiếng Việt&lt;div&gt;&lt;br&gt;&lt;/div&gt;" style="rounded=0;whiteSpace=wrap;html=1;fontFamily=Times New Roman;fontSize=13;" vertex="1" parent="1">
          <mxGeometry x="1930" y="1030" width="130" height="120" as="geometry" />
        </mxCell>
        <mxCell id="PX54fiHaZJq2f_gUCy9G-89" value="Từ 5: Bản Tiếng Việt&lt;div&gt;&lt;br&gt;&lt;/div&gt;" style="rounded=0;whiteSpace=wrap;html=1;fontFamily=Times New Roman;fontSize=13;" vertex="1" parent="1">
          <mxGeometry x="1800" y="1150" width="130" height="120" as="geometry" />
        </mxCell>
        <mxCell id="PX54fiHaZJq2f_gUCy9G-90" value="Từ 6: Bản Tiếng Việt&lt;div&gt;&lt;br&gt;&lt;/div&gt;" style="rounded=0;whiteSpace=wrap;html=1;fontFamily=Times New Roman;fontSize=13;" vertex="1" parent="1">
          <mxGeometry x="1930" y="1150" width="130" height="120" as="geometry" />
        </mxCell>
        <mxCell id="PX54fiHaZJq2f_gUCy9G-91" value="QUAY LẠI" style="rounded=0;whiteSpace=wrap;html=1;fontFamily=Times New Roman;fontSize=13;" vertex="1" parent="1">
          <mxGeometry x="1800" y="1270" width="260" height="70" as="geometry" />
        </mxCell>
        <mxCell id="PX54fiHaZJq2f_gUCy9G-93" style="edgeStyle=orthogonalEdgeStyle;rounded=0;orthogonalLoop=1;jettySize=auto;html=1;exitX=1;exitY=0.5;exitDx=0;exitDy=0;entryX=-0.013;entryY=0.108;entryDx=0;entryDy=0;entryPerimeter=0;fontFamily=Times New Roman;fontSize=13;" edge="1" parent="1" source="PX54fiHaZJq2f_gUCy9G-69" target="PX54fiHaZJq2f_gUCy9G-87">
          <mxGeometry relative="1" as="geometry" />
        </mxCell>
        <mxCell id="PX54fiHaZJq2f_gUCy9G-94" value="Unit qua Unit exercise(Trang học Unit)&lt;div&gt;&lt;br&gt;&lt;/div&gt;" style="text;html=1;align=center;verticalAlign=middle;whiteSpace=wrap;rounded=0;fontFamily=Times New Roman;fontSize=13;" vertex="1" parent="1">
          <mxGeometry x="1560" y="1010" width="60" height="30" as="geometry" />
        </mxCell>
        <mxCell id="PX54fiHaZJq2f_gUCy9G-95" style="rounded=1;whiteSpace=wrap;html=1;fillColor=#FFFFFF;strokeColor=#000000;shadow=1;fontFamily=Times New Roman;fontSize=13;" vertex="1" parent="1">
          <mxGeometry x="1870" y="140" width="300" height="600" as="geometry" />
        </mxCell>
        <mxCell id="PX54fiHaZJq2f_gUCy9G-96" style="shape=ellipse;whiteSpace=wrap;html=1;fillColor=#000000;strokeColor=none;fontFamily=Times New Roman;fontSize=13;" vertex="1" parent="1">
          <mxGeometry x="2010" y="150" width="20" height="10" as="geometry" />
        </mxCell>
        <mxCell id="PX54fiHaZJq2f_gUCy9G-97" style="rounded=0;whiteSpace=wrap;html=1;fillColor=#F5F5F5;strokeColor=none;fontFamily=Times New Roman;fontSize=13;" vertex="1" parent="1">
          <mxGeometry x="1890" y="170" width="260" height="520" as="geometry" />
        </mxCell>
        <mxCell id="PX54fiHaZJq2f_gUCy9G-98" value="" style="edgeStyle=orthogonalEdgeStyle;rounded=0;orthogonalLoop=1;jettySize=auto;html=1;fontFamily=Times New Roman;fontSize=13;" edge="1" target="PX54fiHaZJq2f_gUCy9G-99" parent="1">
          <mxGeometry relative="1" as="geometry">
            <mxPoint x="2020" y="170.00000000000045" as="sourcePoint" />
          </mxGeometry>
        </mxCell>
        <mxCell id="PX54fiHaZJq2f_gUCy9G-99" value="Trang bảng chữ cái&amp;nbsp; 3&amp;nbsp;&lt;div&gt;&lt;div&gt;&lt;br&gt;&lt;/div&gt;&lt;/div&gt;" style="text;html=1;align=center;verticalAlign=middle;whiteSpace=wrap;rounded=0;fontFamily=Times New Roman;fontSize=13;" vertex="1" parent="1">
          <mxGeometry x="1980" y="100" width="80" height="30" as="geometry" />
        </mxCell>
        <mxCell id="PX54fiHaZJq2f_gUCy9G-100" value="QUAY LẠI" style="rounded=0;whiteSpace=wrap;html=1;fontFamily=Times New Roman;fontSize=13;" vertex="1" parent="1">
          <mxGeometry x="1890" y="630" width="260" height="70" as="geometry" />
        </mxCell>
        <mxCell id="PX54fiHaZJq2f_gUCy9G-101" value="Bài...:&amp;nbsp; HỌC PHÁT ....&lt;div&gt;&lt;br&gt;&lt;/div&gt;" style="rounded=0;whiteSpace=wrap;html=1;fontFamily=Times New Roman;fontSize=13;" vertex="1" parent="1">
          <mxGeometry x="1890" y="170" width="260" height="90" as="geometry" />
        </mxCell>
        <mxCell id="PX54fiHaZJq2f_gUCy9G-102" value="" style="edgeStyle=orthogonalEdgeStyle;rounded=0;orthogonalLoop=1;jettySize=auto;html=1;fontFamily=Times New Roman;fontSize=13;" edge="1" target="PX54fiHaZJq2f_gUCy9G-100" parent="1">
          <mxGeometry relative="1" as="geometry">
            <mxPoint x="2085" y="440" as="sourcePoint" />
          </mxGeometry>
        </mxCell>
        <mxCell id="PX54fiHaZJq2f_gUCy9G-103" value="&amp;nbsp;LUYỆN PHÁT ÂM" style="rounded=0;whiteSpace=wrap;html=1;fontFamily=Times New Roman;fontSize=13;" vertex="1" parent="1">
          <mxGeometry x="1890" y="530" width="130" height="103" as="geometry" />
        </mxCell>
        <mxCell id="PX54fiHaZJq2f_gUCy9G-104" value="NGHE LẠI PHÁT ÂM CỦA MÌNH" style="rounded=0;whiteSpace=wrap;html=1;fontFamily=Times New Roman;fontSize=13;" vertex="1" parent="1">
          <mxGeometry x="2020" y="530" width="130" height="103" as="geometry" />
        </mxCell>
        <mxCell id="PX54fiHaZJq2f_gUCy9G-105" value="NGHE CHỮ SỐ 1" style="rounded=0;whiteSpace=wrap;html=1;fontFamily=Times New Roman;fontSize=13;" vertex="1" parent="1">
          <mxGeometry x="1890" y="260" width="260" height="93" as="geometry" />
        </mxCell>
        <mxCell id="PX54fiHaZJq2f_gUCy9G-106" value="NGHE CHỮ SỐ 2" style="rounded=0;whiteSpace=wrap;html=1;fontFamily=Times New Roman;fontSize=13;" vertex="1" parent="1">
          <mxGeometry x="1890" y="353" width="260" height="93" as="geometry" />
        </mxCell>
        <mxCell id="PX54fiHaZJq2f_gUCy9G-107" value="NGHE CHỮ SỐ 3" style="rounded=0;whiteSpace=wrap;html=1;fontFamily=Times New Roman;fontSize=13;" vertex="1" parent="1">
          <mxGeometry x="1890" y="446" width="260" height="93" as="geometry" />
        </mxCell>
        <mxCell id="PX54fiHaZJq2f_gUCy9G-108" style="edgeStyle=orthogonalEdgeStyle;rounded=0;orthogonalLoop=1;jettySize=auto;html=1;exitX=1;exitY=0.5;exitDx=0;exitDy=0;entryX=0;entryY=0.424;entryDx=0;entryDy=0;entryPerimeter=0;fontFamily=Times New Roman;fontSize=13;" edge="1" parent="1" source="qoUrT7d6lG7RUCfjTTM9-58" target="PX54fiHaZJq2f_gUCy9G-95">
          <mxGeometry relative="1" as="geometry" />
        </mxCell>
        <mxCell id="PX54fiHaZJq2f_gUCy9G-109" value="Trang bài học bảng chữ cái(Alphabet exercise)" style="text;html=1;align=center;verticalAlign=middle;whiteSpace=wrap;rounded=0;fontFamily=Times New Roman;fontSize=13;" vertex="1" parent="1">
          <mxGeometry x="1730" y="340" width="60" height="30" as="geometry" />
        </mxCell>
        <mxCell id="PX54fiHaZJq2f_gUCy9G-110" style="rounded=1;whiteSpace=wrap;html=1;fillColor=#FFFFFF;strokeColor=#000000;shadow=1;fontFamily=Times New Roman;fontSize=13;" vertex="1" parent="1">
          <mxGeometry x="90" y="1495" width="300" height="600" as="geometry" />
        </mxCell>
        <mxCell id="PX54fiHaZJq2f_gUCy9G-111" style="shape=ellipse;whiteSpace=wrap;html=1;fillColor=#000000;strokeColor=none;fontFamily=Times New Roman;fontSize=13;" vertex="1" parent="1">
          <mxGeometry x="230" y="1505" width="20" height="10" as="geometry" />
        </mxCell>
        <mxCell id="PX54fiHaZJq2f_gUCy9G-112" style="rounded=0;whiteSpace=wrap;html=1;fillColor=#F5F5F5;strokeColor=none;fontFamily=Times New Roman;fontSize=13;" vertex="1" parent="1">
          <mxGeometry x="110" y="1535" width="260" height="520" as="geometry" />
        </mxCell>
        <mxCell id="PX54fiHaZJq2f_gUCy9G-144" style="edgeStyle=orthogonalEdgeStyle;rounded=0;orthogonalLoop=1;jettySize=auto;html=1;exitX=1;exitY=0.5;exitDx=0;exitDy=0;fontFamily=Times New Roman;fontSize=13;" edge="1" parent="1" source="PX54fiHaZJq2f_gUCy9G-113">
          <mxGeometry relative="1" as="geometry">
            <mxPoint x="550" y="1729.8571428571431" as="targetPoint" />
          </mxGeometry>
        </mxCell>
        <mxCell id="PX54fiHaZJq2f_gUCy9G-113" value="LUYỆN NGHE" style="rounded=0;whiteSpace=wrap;html=1;fontFamily=Times New Roman;fontSize=13;" vertex="1" parent="1">
          <mxGeometry x="110" y="1665" width="260" height="130" as="geometry" />
        </mxCell>
        <mxCell id="PX54fiHaZJq2f_gUCy9G-114" value="LUYỆN NÓI" style="rounded=0;whiteSpace=wrap;html=1;fontFamily=Times New Roman;fontSize=13;" vertex="1" parent="1">
          <mxGeometry x="110" y="1795" width="260" height="130" as="geometry" />
        </mxCell>
        <mxCell id="PX54fiHaZJq2f_gUCy9G-115" value="QUAY LẠI" style="rounded=0;whiteSpace=wrap;html=1;fontFamily=Times New Roman;fontSize=13;" vertex="1" parent="1">
          <mxGeometry x="110" y="1925" width="260" height="130" as="geometry" />
        </mxCell>
        <mxCell id="PX54fiHaZJq2f_gUCy9G-116" value="BẢNG CHỮ CÁI&amp;nbsp;" style="rounded=0;whiteSpace=wrap;html=1;fontFamily=Times New Roman;fontSize=13;" vertex="1" parent="1">
          <mxGeometry x="110" y="1535" width="130" height="130" as="geometry" />
        </mxCell>
        <mxCell id="PX54fiHaZJq2f_gUCy9G-117" value="TỪ VỰNG CƠ BẢN" style="rounded=0;whiteSpace=wrap;html=1;fontFamily=Times New Roman;fontSize=13;" vertex="1" parent="1">
          <mxGeometry x="240" y="1535" width="130" height="130" as="geometry" />
        </mxCell>
        <mxCell id="PX54fiHaZJq2f_gUCy9G-118" value="Sub-menu&amp;nbsp;" style="text;html=1;align=center;verticalAlign=middle;whiteSpace=wrap;rounded=0;fontFamily=Times New Roman;fontSize=13;" vertex="1" parent="1">
          <mxGeometry x="210" y="1465" width="60" height="30" as="geometry" />
        </mxCell>
        <mxCell id="PX54fiHaZJq2f_gUCy9G-119" style="rounded=1;whiteSpace=wrap;html=1;fillColor=#FFFFFF;strokeColor=#000000;shadow=1;fontFamily=Times New Roman;fontSize=13;" vertex="1" parent="1">
          <mxGeometry x="80" y="2155" width="300" height="600" as="geometry" />
        </mxCell>
        <mxCell id="PX54fiHaZJq2f_gUCy9G-120" style="shape=ellipse;whiteSpace=wrap;html=1;fillColor=#000000;strokeColor=none;fontFamily=Times New Roman;fontSize=13;" vertex="1" parent="1">
          <mxGeometry x="220" y="2165" width="20" height="10" as="geometry" />
        </mxCell>
        <mxCell id="PX54fiHaZJq2f_gUCy9G-121" style="rounded=0;whiteSpace=wrap;html=1;fillColor=#F5F5F5;strokeColor=none;fontFamily=Times New Roman;fontSize=13;" vertex="1" parent="1">
          <mxGeometry x="100" y="2195" width="260" height="520" as="geometry" />
        </mxCell>
        <mxCell id="PX54fiHaZJq2f_gUCy9G-122" value="LUYỆN NGHE" style="rounded=0;whiteSpace=wrap;html=1;fontFamily=Times New Roman;fontSize=13;" vertex="1" parent="1">
          <mxGeometry x="100" y="2325" width="260" height="130" as="geometry" />
        </mxCell>
        <mxCell id="PX54fiHaZJq2f_gUCy9G-162" style="edgeStyle=orthogonalEdgeStyle;rounded=0;orthogonalLoop=1;jettySize=auto;html=1;exitX=1;exitY=0.5;exitDx=0;exitDy=0;fontFamily=Times New Roman;fontSize=13;" edge="1" parent="1" source="PX54fiHaZJq2f_gUCy9G-123">
          <mxGeometry relative="1" as="geometry">
            <mxPoint x="550" y="2519.857142857143" as="targetPoint" />
          </mxGeometry>
        </mxCell>
        <mxCell id="PX54fiHaZJq2f_gUCy9G-123" value="LUYỆN NÓI" style="rounded=0;whiteSpace=wrap;html=1;fontFamily=Times New Roman;fontSize=13;" vertex="1" parent="1">
          <mxGeometry x="100" y="2455" width="260" height="130" as="geometry" />
        </mxCell>
        <mxCell id="PX54fiHaZJq2f_gUCy9G-124" value="QUAY LẠI" style="rounded=0;whiteSpace=wrap;html=1;fontFamily=Times New Roman;fontSize=13;" vertex="1" parent="1">
          <mxGeometry x="100" y="2585" width="260" height="130" as="geometry" />
        </mxCell>
        <mxCell id="PX54fiHaZJq2f_gUCy9G-125" value="BẢNG CHỮ CÁI&amp;nbsp;" style="rounded=0;whiteSpace=wrap;html=1;fontFamily=Times New Roman;fontSize=13;" vertex="1" parent="1">
          <mxGeometry x="100" y="2195" width="130" height="130" as="geometry" />
        </mxCell>
        <mxCell id="PX54fiHaZJq2f_gUCy9G-126" value="TỪ VỰNG CƠ BẢN" style="rounded=0;whiteSpace=wrap;html=1;fontFamily=Times New Roman;fontSize=13;" vertex="1" parent="1">
          <mxGeometry x="230" y="2195" width="130" height="130" as="geometry" />
        </mxCell>
        <mxCell id="PX54fiHaZJq2f_gUCy9G-127" value="Sub-menu&amp;nbsp;" style="text;html=1;align=center;verticalAlign=middle;whiteSpace=wrap;rounded=0;fontFamily=Times New Roman;fontSize=13;" vertex="1" parent="1">
          <mxGeometry x="200" y="2125" width="60" height="30" as="geometry" />
        </mxCell>
        <mxCell id="PX54fiHaZJq2f_gUCy9G-130" value="Luyện nghe(Listening) qua trang bài(lesson page)" style="text;html=1;align=center;verticalAlign=middle;whiteSpace=wrap;rounded=0;fontFamily=Times New Roman;fontSize=13;" vertex="1" parent="1">
          <mxGeometry x="440" y="1690" width="60" height="30" as="geometry" />
        </mxCell>
        <mxCell id="PX54fiHaZJq2f_gUCy9G-131" style="rounded=1;whiteSpace=wrap;html=1;fillColor=#FFFFFF;strokeColor=#000000;shadow=1;fontFamily=Times New Roman;fontSize=13;" vertex="1" parent="1">
          <mxGeometry x="560" y="1480" width="300" height="600" as="geometry" />
        </mxCell>
        <mxCell id="PX54fiHaZJq2f_gUCy9G-132" style="rounded=0;whiteSpace=wrap;html=1;fillColor=#F5F5F5;strokeColor=none;fontFamily=Times New Roman;fontSize=13;" vertex="1" parent="1">
          <mxGeometry x="580" y="1510" width="260" height="520" as="geometry" />
        </mxCell>
        <mxCell id="PX54fiHaZJq2f_gUCy9G-133" value="BÀI 1" style="rounded=0;whiteSpace=wrap;html=1;fontFamily=Times New Roman;fontSize=13;" vertex="1" parent="1">
          <mxGeometry x="580" y="1510" width="130" height="150" as="geometry" />
        </mxCell>
        <mxCell id="PX54fiHaZJq2f_gUCy9G-134" value="BÀI 2" style="rounded=0;whiteSpace=wrap;html=1;fontFamily=Times New Roman;fontSize=13;" vertex="1" parent="1">
          <mxGeometry x="710" y="1510" width="130" height="150" as="geometry" />
        </mxCell>
        <mxCell id="PX54fiHaZJq2f_gUCy9G-135" value="BÀI 3" style="rounded=0;whiteSpace=wrap;html=1;fontFamily=Times New Roman;fontSize=13;" vertex="1" parent="1">
          <mxGeometry x="580" y="1660" width="130" height="150" as="geometry" />
        </mxCell>
        <mxCell id="PX54fiHaZJq2f_gUCy9G-136" value="BÀI 4" style="rounded=0;whiteSpace=wrap;html=1;fontFamily=Times New Roman;fontSize=13;" vertex="1" parent="1">
          <mxGeometry x="710" y="1660" width="130" height="150" as="geometry" />
        </mxCell>
        <mxCell id="PX54fiHaZJq2f_gUCy9G-137" value="BÀI 5" style="rounded=0;whiteSpace=wrap;html=1;fontFamily=Times New Roman;fontSize=13;" vertex="1" parent="1">
          <mxGeometry x="580" y="1810" width="130" height="150" as="geometry" />
        </mxCell>
        <mxCell id="PX54fiHaZJq2f_gUCy9G-138" value="BÀI 6" style="rounded=0;whiteSpace=wrap;html=1;fontFamily=Times New Roman;fontSize=13;" vertex="1" parent="1">
          <mxGeometry x="710" y="1810" width="130" height="150" as="geometry" />
        </mxCell>
        <mxCell id="PX54fiHaZJq2f_gUCy9G-139" value="TRANG TRƯỚC" style="rounded=0;whiteSpace=wrap;html=1;fontFamily=Times New Roman;fontSize=13;" vertex="1" parent="1">
          <mxGeometry x="580" y="1960" width="90" height="80" as="geometry" />
        </mxCell>
        <mxCell id="PX54fiHaZJq2f_gUCy9G-140" value="TRANG SAU" style="rounded=0;whiteSpace=wrap;html=1;fontFamily=Times New Roman;fontSize=13;" vertex="1" parent="1">
          <mxGeometry x="750" y="1960" width="90" height="80" as="geometry" />
        </mxCell>
        <mxCell id="PX54fiHaZJq2f_gUCy9G-141" value="Lesson page 1" style="text;html=1;align=center;verticalAlign=middle;whiteSpace=wrap;rounded=0;fontFamily=Times New Roman;fontSize=13;" vertex="1" parent="1">
          <mxGeometry x="680" y="1450" width="60" height="30" as="geometry" />
        </mxCell>
        <mxCell id="PX54fiHaZJq2f_gUCy9G-142" style="shape=ellipse;whiteSpace=wrap;html=1;fillColor=#000000;strokeColor=none;fontFamily=Times New Roman;fontSize=13;" vertex="1" parent="1">
          <mxGeometry x="700" y="1490" width="20" height="10" as="geometry" />
        </mxCell>
        <mxCell id="PX54fiHaZJq2f_gUCy9G-143" value="QUAY LẠI" style="rounded=0;whiteSpace=wrap;html=1;fontFamily=Times New Roman;fontSize=13;" vertex="1" parent="1">
          <mxGeometry x="670" y="1960" width="80" height="80" as="geometry" />
        </mxCell>
        <mxCell id="PX54fiHaZJq2f_gUCy9G-146" value="Trang bài(Lesson page) qua bài luyện nghe( Listening exercise)&lt;div&gt;&lt;br&gt;&lt;/div&gt;" style="text;html=1;align=center;verticalAlign=middle;whiteSpace=wrap;rounded=0;fontFamily=Times New Roman;fontSize=13;" vertex="1" parent="1">
          <mxGeometry x="970" y="1690" width="60" height="30" as="geometry" />
        </mxCell>
        <mxCell id="PX54fiHaZJq2f_gUCy9G-147" style="edgeStyle=orthogonalEdgeStyle;rounded=0;orthogonalLoop=1;jettySize=auto;html=1;exitX=1;exitY=0.5;exitDx=0;exitDy=0;entryX=-0.004;entryY=0.431;entryDx=0;entryDy=0;entryPerimeter=0;fontFamily=Times New Roman;fontSize=13;" edge="1" parent="1" source="PX54fiHaZJq2f_gUCy9G-136" target="qoUrT7d6lG7RUCfjTTM9-86">
          <mxGeometry relative="1" as="geometry" />
        </mxCell>
        <mxCell id="PX54fiHaZJq2f_gUCy9G-148" style="rounded=1;whiteSpace=wrap;html=1;fillColor=#FFFFFF;strokeColor=#000000;shadow=1;fontFamily=Times New Roman;fontSize=13;" vertex="1" parent="1">
          <mxGeometry x="560" y="2165" width="300" height="600" as="geometry" />
        </mxCell>
        <mxCell id="PX54fiHaZJq2f_gUCy9G-149" style="rounded=0;whiteSpace=wrap;html=1;fillColor=#F5F5F5;strokeColor=none;fontFamily=Times New Roman;fontSize=13;" vertex="1" parent="1">
          <mxGeometry x="580" y="2195" width="260" height="520" as="geometry" />
        </mxCell>
        <mxCell id="PX54fiHaZJq2f_gUCy9G-150" value="BÀI 1" style="rounded=0;whiteSpace=wrap;html=1;fontFamily=Times New Roman;fontSize=13;" vertex="1" parent="1">
          <mxGeometry x="580" y="2195" width="130" height="150" as="geometry" />
        </mxCell>
        <mxCell id="PX54fiHaZJq2f_gUCy9G-151" value="BÀI 2" style="rounded=0;whiteSpace=wrap;html=1;fontFamily=Times New Roman;fontSize=13;" vertex="1" parent="1">
          <mxGeometry x="710" y="2195" width="130" height="150" as="geometry" />
        </mxCell>
        <mxCell id="PX54fiHaZJq2f_gUCy9G-152" value="BÀI 3" style="rounded=0;whiteSpace=wrap;html=1;fontFamily=Times New Roman;fontSize=13;" vertex="1" parent="1">
          <mxGeometry x="580" y="2345" width="130" height="150" as="geometry" />
        </mxCell>
        <mxCell id="PX54fiHaZJq2f_gUCy9G-153" value="BÀI 4" style="rounded=0;whiteSpace=wrap;html=1;fontFamily=Times New Roman;fontSize=13;" vertex="1" parent="1">
          <mxGeometry x="710" y="2345" width="130" height="150" as="geometry" />
        </mxCell>
        <mxCell id="PX54fiHaZJq2f_gUCy9G-154" value="BÀI 5" style="rounded=0;whiteSpace=wrap;html=1;fontFamily=Times New Roman;fontSize=13;" vertex="1" parent="1">
          <mxGeometry x="580" y="2495" width="130" height="150" as="geometry" />
        </mxCell>
        <mxCell id="PX54fiHaZJq2f_gUCy9G-155" value="BÀI 6" style="rounded=0;whiteSpace=wrap;html=1;fontFamily=Times New Roman;fontSize=13;" vertex="1" parent="1">
          <mxGeometry x="710" y="2495" width="130" height="150" as="geometry" />
        </mxCell>
        <mxCell id="PX54fiHaZJq2f_gUCy9G-156" value="TRANG TRƯỚC" style="rounded=0;whiteSpace=wrap;html=1;fontFamily=Times New Roman;fontSize=13;" vertex="1" parent="1">
          <mxGeometry x="580" y="2645" width="90" height="80" as="geometry" />
        </mxCell>
        <mxCell id="PX54fiHaZJq2f_gUCy9G-157" value="TRANG SAU" style="rounded=0;whiteSpace=wrap;html=1;fontFamily=Times New Roman;fontSize=13;" vertex="1" parent="1">
          <mxGeometry x="750" y="2645" width="90" height="80" as="geometry" />
        </mxCell>
        <mxCell id="PX54fiHaZJq2f_gUCy9G-158" value="Lesson page 1" style="text;html=1;align=center;verticalAlign=middle;whiteSpace=wrap;rounded=0;fontFamily=Times New Roman;fontSize=13;" vertex="1" parent="1">
          <mxGeometry x="680" y="2135" width="60" height="30" as="geometry" />
        </mxCell>
        <mxCell id="PX54fiHaZJq2f_gUCy9G-159" style="shape=ellipse;whiteSpace=wrap;html=1;fillColor=#000000;strokeColor=none;fontFamily=Times New Roman;fontSize=13;" vertex="1" parent="1">
          <mxGeometry x="700" y="2175" width="20" height="10" as="geometry" />
        </mxCell>
        <mxCell id="PX54fiHaZJq2f_gUCy9G-160" value="QUAY LẠI" style="rounded=0;whiteSpace=wrap;html=1;fontFamily=Times New Roman;fontSize=13;" vertex="1" parent="1">
          <mxGeometry x="670" y="2645" width="80" height="80" as="geometry" />
        </mxCell>
        <mxCell id="PX54fiHaZJq2f_gUCy9G-163" value="Luyện nói(Speaking) sang trang bài(Lesson page)" style="text;html=1;align=center;verticalAlign=middle;whiteSpace=wrap;rounded=0;fontFamily=Times New Roman;fontSize=13;" vertex="1" parent="1">
          <mxGeometry x="420" y="2480" width="60" height="30" as="geometry" />
        </mxCell>
        <mxCell id="PX54fiHaZJq2f_gUCy9G-164" style="edgeStyle=orthogonalEdgeStyle;rounded=0;orthogonalLoop=1;jettySize=auto;html=1;exitX=1;exitY=0.5;exitDx=0;exitDy=0;entryX=0.015;entryY=0.475;entryDx=0;entryDy=0;entryPerimeter=0;fontFamily=Times New Roman;fontSize=13;" edge="1" parent="1" source="PX54fiHaZJq2f_gUCy9G-153" target="qoUrT7d6lG7RUCfjTTM9-94">
          <mxGeometry relative="1" as="geometry" />
        </mxCell>
        <mxCell id="PX54fiHaZJq2f_gUCy9G-165" value="Trang bài(Lesson page) sang trang luyện nói(Speaking exercise)" style="text;html=1;align=center;verticalAlign=middle;whiteSpace=wrap;rounded=0;fontFamily=Times New Roman;fontSize=13;" vertex="1" parent="1">
          <mxGeometry x="970" y="2390" width="60" height="30" as="geometry" />
        </mxCell>
      </root>
    </mxGraphModel>
  </diagram>
</mxfile>
